<svg xmlns="http://www.w3.org/2000/svg" width="260" height="260" viewBox="0 0 260 260">
    <g id="Group_239" data-name="Group 239" transform="translate(8970 964)">
      <circle id="Ellipse_176" data-name="Ellipse 176" cx="130" cy="130" r="130" transform="translate(-8970 -964)" fill="rgba(177,18,38,0.58)"/>
      <g id="Group_238" data-name="Group 238" transform="translate(-9105.143 -1191.586)">
        <g id="Group_118" data-name="Group 118" transform="translate(190.143 297.032)">
          <path id="Path_368" data-name="Path 368" d="M189.152,997.252c-14.668-1.476-60.567-11.755-69-49.252L89,957.654S125.521,1008.223,189.152,997.252Z" transform="translate(-89 -877.703)" fill="#fff"/>
          <path id="Path_369" data-name="Path 369" d="M216.887,918.089c-15.078-5.449-67.316-37.1-32.648-96.347L134,844.428s1.317,16.237,3.511,23.258l15.8-4.827S154.11,910.244,216.887,918.089Z" transform="translate(-114.253 -802.656)" fill="#fff"/>
          <g id="Group_117" data-name="Group 117" transform="translate(64.97)">
            <path id="Path_370" data-name="Path 370" d="M288.345,893.276c-19.341,0-35.02-16.181-35.02-36.141s15.679-36.141,35.02-36.141a34.1,34.1,0,0,1,19.586,6.177l11.044-16.894a52.98,52.98,0,0,0-30.627-9.739c-30.046,0-54.4,25.137-54.4,56.145s24.357,56.145,54.4,56.145a52.963,52.963,0,0,0,30.12-9.387l-10.582-16.311A34.1,34.1,0,0,1,288.345,893.276Z" transform="translate(-233.945 -800.537)" fill="#fff"/>
          </g>
        </g>
      </g>
    </g>
  </svg>
  